:SAMPLES-PER-SECOND 30
:FULLY-SPECIFIED
:DEGREES
500
root  -47.6692 39.2044 -5.68359 92.366 -87.6664 -99.1739
RightUpLeg  10.439 -7.34517 2.20884
RightLeg  16.1933 6.16561 1.85244
RightFoot  -18.3932 -0.443504 -5.18798
RightToes  5.82063e-011 0 -3.6325e-017
Spine  -3.30631 0.579413 10.1733
Spine1  14.6451 1.02256 -2.57602
HEad  13.6934 0.870059 -1.14145
LeftShoulder1  -0.0375356 3.60579 -30.6914
LeftArm  -7.18032 4.6351 -33.9525
LeftForeArm  36.9016 -76.0915 -49.718
LeftHand  0.0259593 3.64528 -3.46486
RightShoulder  -0.355008 -4.58845 25.6832
RightArm  -5.97304 -9.31232 36.0468
RightForeArm  53.0409 78.5236 82.7622
RightHand  -0.239666 0.814868 -4.58154
LeftUpLeg  -19.7281 4.31117 4.90233
LeftLeg  -4.16382 -3.53545 0.954153
LeftFoot  -3.09343 0.578117 -8.04003
LeftToes  1.81573e-012 2.54609e-010 -3.45981e-011
501
root  -49.111 38.8333 -5.50551 98.6054 -86.8496 -104.692
RightUpLeg  11.7055 -7.49038 2.37019
RightLeg  17.2247 6.71902 2.12989
RightFoot  -20.9183 -0.555256 -4.92251
RightToes  5.82063e-011 0 -3.6325e-017
Spine  -4.3598 0.746399 10.5773
Spine1  14.2473 0.952594 -2.41278
HEad  14.1149 0.891127 -0.656352
LeftShoulder1  -0.012369 3.53761 -30.5157
LeftArm  -7.01201 4.93366 -33.9622
LeftForeArm  36.1225 -75.9198 -48.846
LeftHand  0.0240425 3.85908 -3.34717
RightShoulder  -0.373799 -4.63722 25.9668
RightArm  -5.39491 -9.43415 35.5809
RightForeArm  50.962 78.4615 80.9428
RightHand  -0.250814 1.09606 -4.61457
LeftUpLeg  -21.3973 4.459 5.41486
LeftLeg  -5.34816 -0.557538 0.615239
LeftFoot  -5.53582 0.583206 -10.8743
LeftToes  1.81573e-012 2.54609e-010 -3.45981e-011
502
root  -50.5008 38.4544 -5.33907 99.9283 -86.337 -105.847
RightUpLeg  13.6466 -7.61393 2.2005
RightLeg  17.983 7.06816 2.3408
RightFoot  -23.0218 -0.625558 -4.61451
RightToes  5.82063e-011 0 -3.6325e-017
Spine  -4.45504 0.728757 10.6273
Spine1  14.4096 1.01679 -2.54255
HEad  13.7966 0.961589 -0.556412
LeftShoulder1  0.0115829 3.47217 -30.4659
LeftArm  -6.75986 4.73975 -33.9568
LeftForeArm  35.7531 -75.7474 -47.8742
LeftHand  0.0357487 3.66259 -4.17752
RightShoulder  -0.363955 -4.60633 25.9756
RightArm  -5.17815 -9.67937 35.2559
RightForeArm  48.6059 78.3786 78.7149
RightHand  -0.261827 1.30507 -4.6641
LeftUpLeg  -22.0739 4.2586 5.27614
LeftLeg  -3.35688 -0.187784 0.842038
LeftFoot  -2.95229 0.56389 -7.21465
LeftToes  1.81573e-012 2.54609e-010 -3.45981e-011
503
root  -52.036 38.1321 -5.22148 130.653 -85.385 -136.836
RightUpLeg  15.9334 -5.23116 1.47427
RightLeg  18.8805 7.11943 1.8753
RightFoot  -24.9738 -0.583622 -3.44301
RightToes  5.82063e-011 0 -3.6325e-017
Spine  -4.80642 1.95405 9.9137
Spine1  15.6769 2.62401 -2.93804
HEad  13.9452 0.643375 -0.233374
LeftShoulder1  0.0509524 3.36479 -30.5048
LeftArm  -5.96092 4.28914 -34.0166
LeftForeArm  34.1569 -75.3831 -46.2473
LeftHand  0.0321016 3.60323 -3.60939
RightShoulder  -0.363542 -4.60189 26.0709
RightArm  -4.72415 -10.3605 34.6295
RightForeArm  47.1142 78.3201 77.9182
RightHand  -0.310449 1.44372 -5.41386
LeftUpLeg  -21.6237 5.01362 5.14633
LeftLeg  0.756214 2.38342 0.291622
LeftFoot  0.0410636 0.371115 -4.27667
LeftToes  1.81573e-012 2.54609e-010 -3.45981e-011
504
root  -53.479 38.0579 -5.18086 165.824 -82.2195 -171.73
RightUpLeg  17.105 1.08372 1.24178
RightLeg  19.6141 4.80284 1.16389
RightFoot  -25.2783 -0.36538 -1.63243
RightToes  5.82063e-011 0 -3.6325e-017
Spine  -5.18423 3.81297 7.97727
Spine1  16.582 4.85115 -3.3175
HEad  14.9785 0.987177 -0.0434369
LeftShoulder1  -0.015961 3.5461 -30.9179
LeftArm  -5.19153 4.37376 -33.5431
LeftForeArm  32.6285 -74.9526 -44.4184
LeftHand  0.0319146 3.62028 -3.5534
RightShoulder  -0.342795 -4.53248 26.2314
RightArm  -4.03541 -10.8029 34.2535
RightForeArm  43.2005 78.0933 72.9994
RightHand  -0.245491 1.40869 -4.33514
LeftUpLeg  -21.6539 6.68345 5.06338
LeftLeg  3.79569 5.13582 -0.358679
LeftFoot  9.83078 -0.157526 0.74076
LeftToes  1.81573e-012 2.54609e-010 -3.45981e-011
